<?xml version="1.0" encoding="utf-8"?>
<!-- Generator: Adobe Illustrator 24.1.1, SVG Export Plug-In . SVG Version: 6.00 Build 0)  -->
<svg version="1.1" id="Layer_1" xmlns="http://www.w3.org/2000/svg" xmlns:xlink="http://www.w3.org/1999/xlink" x="0px" y="0px"
	 viewBox="0 0 512 512" style="enable-background:new 0 0 512 512;" xml:space="preserve">
<style type="text/css">
	.st0{fill:#25B7D3;}
	.st1{fill:#3E3E3F;}
	.st2{fill:#E2E4E5;}
	.st3{fill:#F0F1F1;}
	.st4{fill:#FFFFFF;}
	.st5{fill:#CFD3D4;}
	.st6{fill:#5B5C5F;}
</style>
<g id="XMLID_2_">
	<circle id="XMLID_81_" class="st0" cx="256" cy="256" r="256"/>
	<path id="XMLID_82_" class="st1" d="M404.9,343.4c0,7.1-6.3,13.4-13.4,13.4h-271c-7.1,0-13.4-6.3-13.4-13.4V153.6
		c0-7.1,6.3-13.4,13.4-13.4h271c7.1,0,13.4,6.3,13.4,13.4C404.9,153.6,404.9,343.4,404.9,343.4z"/>
	<rect id="XMLID_83_" x="215" y="356.8" class="st2" width="81.1" height="34.7"/>
	<path id="XMLID_84_" class="st3" d="M323.7,397.8c0,3.9-3.2,7.1-7.1,7.1H195.3c-3.9,0-7.1-3.2-7.1-7.1c0-3.9,3.2-7.1,7.1-7.1h122.1
		C320.6,391.5,323.7,394.6,323.7,397.8z"/>
	<path id="XMLID_85_" class="st4" d="M404.9,343.4v-41H107.1v41c0,7.1,6.3,13.4,13.4,13.4h271C398.6,356.8,404.9,350.5,404.9,343.4z
		"/>
	<path id="XMLID_88_" class="st5" d="M256,348.9c-10.2,0-18.1-7.9-18.1-18.1s7.9-18.1,18.1-18.1s18.1,7.9,18.1,18.1
		C274.1,340.3,266.2,348.9,256,348.9z M256,321.4c-4.7,0-8.7,3.9-8.7,8.7s3.9,8.7,8.7,8.7s8.7-3.9,8.7-8.7S260.7,321.4,256,321.4z"
		/>
	<path id="XMLID_89_" class="st6" d="M107.1,152.8v148.9h92.2l162.3-162.3h-241C113.4,139.4,107.1,145.7,107.1,152.8z"/>
	<path id="XMLID_93_" class="st4" d="M141.8,174.9c0-5.5,1.6-7.9,5.5-7.9c3.2,0,5.5,3.2,5.5,7.9c0,5.5-1.6,7.9-5.5,7.9
		S141.8,179.6,141.8,174.9z M149.7,174.9c0-4.7-0.8-6.3-3.2-6.3c-1.6,0-3.2,1.6-3.2,6.3c0,4.7,0.8,6.3,3.2,6.3
		S149.7,178.8,149.7,174.9z M146.5,173.3c0.8,0,1.6,0.8,1.6,1.6c0,0.8-0.8,1.6-1.6,1.6c-0.8,0-1.6-0.8-1.6-1.6
		C144.9,173.3,145.7,173.3,146.5,173.3z"/>
	<polygon id="XMLID_94_" class="st4" points="159.9,169.4 156.8,170.9 155.2,170.1 160.7,167 162.3,167 162.3,180.4 165.4,180.4 
		165.4,182 156,182 156,180.4 159.9,180.4 	"/>
	<polygon id="XMLID_95_" class="st4" points="191.4,168.6 192.2,170.1 184.3,174.9 192.2,180.4 191.4,182 182.7,176.4 182.7,174.1 	
		"/>
	<polygon id="XMLID_96_" class="st4" points="203.2,182 203.2,174.9 197.7,174.9 197.7,182 196.1,182 196.1,167 197.7,167 
		197.7,173.3 203.2,173.3 203.2,167 205.6,167 205.6,182 	"/>
	<polygon id="XMLID_97_" class="st4" points="215,168.6 215,182 213.5,182 213.5,168.6 208.7,168.6 208.7,167 220.6,167 
		219.8,168.6 	"/>
	<path id="XMLID_98_" class="st4" d="M231.6,182l-0.8-7.9c0-2.4,0-4.7,0-5.5l0,0l-2.4,10.2h-2.4l-1.6-9.5l0,0c0,0.8,0,3.2,0,5.5v7.9
		h-2.4l0.8-15.8h3.2l2.4,10.2l0,0l2.4-10.2h3.2l0.8,15.8h-3.2V182z"/>
	<polygon id="XMLID_99_" class="st4" points="237.9,182 237.9,167 239.5,167 239.5,180.4 246.5,180.4 246.5,182 	"/>
	<polygon id="XMLID_100_" class="st4" points="259.9,174.1 259.9,176.4 251.3,182 249.7,180.4 257.6,174.9 249.7,170.1 251.3,168.6 
			"/>
	<path id="XMLID_104_" class="st4" d="M141.8,201.6c0-5.5,1.6-7.9,5.5-7.9c3.2,0,5.5,3.2,5.5,7.9c0,5.5-1.6,7.9-5.5,7.9
		S141.8,206.4,141.8,201.6z M149.7,201.6c0-4.7-0.8-6.3-3.2-6.3c-1.6,0-3.2,1.6-3.2,6.3c0,4.7,0.8,6.3,3.2,6.3
		C148.9,208,149.7,206.4,149.7,201.6z M146.5,200.1c0.8,0,1.6,0.8,1.6,1.6c0,0.8-0.8,1.6-1.6,1.6c-0.8,0-1.6-0.8-1.6-1.6
		C144.9,200.9,145.7,200.1,146.5,200.1z"/>
	<path id="XMLID_106_" class="st4" d="M157.5,208h7.1v1.6h-9.5V208c5.5-5.5,7.1-7.1,7.1-9.5c0-1.6-0.8-2.4-2.4-2.4s-2.4,0.8-3.2,1.6
		l-1.6-0.8c1.6-1.6,2.4-2.4,4.7-2.4c3.2,0,4.7,1.6,4.7,3.9C164.6,200.9,162.3,203.2,157.5,208z"/>
	<polygon id="XMLID_107_" class="st4" points="191.4,196.1 192.2,197.7 184.3,202.4 192.2,207.2 191.4,208.7 182.7,203.2 
		182.7,200.9 	"/>
	<path id="XMLID_114_" class="st4" d="M200.1,209.5h-3.9v-15.8h3.9c3.2,0,5.5,0.8,5.5,3.9c0,2.4-1.6,3.2-2.4,3.2l0,0
		c1.6,0,3.2,1.6,3.2,3.9C206.4,208,203.2,209.5,200.1,209.5z M200.1,195.3h-2.4v4.7h3.2c1.6,0,3.2-0.8,3.2-2.4
		C203.2,196.1,202.4,195.3,200.1,195.3z M200.9,202.4h-2.4v5.5h2.4c1.6,0,3.2-0.8,3.2-2.4C204,202.4,202.4,202.4,200.9,202.4z"/>
	<path id="XMLID_117_" class="st4" d="M214.3,209.5c-3.9,0-5.5-3.2-5.5-7.9c0-4.7,1.6-7.9,5.5-7.9s5.5,3.2,5.5,7.9
		C219.8,206.4,218.2,209.5,214.3,209.5z M214.3,195.3c-2.4,0-3.2,2.4-3.2,6.3s0.8,6.3,3.2,6.3c2.4,0,3.2-2.4,3.2-6.3
		C218.2,197.7,216.6,195.3,214.3,195.3z"/>
	<path id="XMLID_120_" class="st4" d="M226.9,209.5h-3.9v-15.8h3.2c3.9,0,7.1,1.6,7.1,7.9C233.9,208,230,209.5,226.9,209.5z
		 M226.9,195.3h-1.6v11.8h1.6c2.4,0,4.7-0.8,4.7-6.3C231.6,196.1,229.2,195.3,226.9,195.3z"/>
	<polygon id="XMLID_121_" class="st4" points="242.6,203.2 242.6,209.5 240.2,209.5 240.2,203.2 234.7,193.8 237.1,193.8 241,201.6 
		241.8,201.6 245.8,193.8 247.3,193.8 	"/>
	<polygon id="XMLID_122_" class="st4" points="259.9,200.9 259.9,203.2 251.3,208.7 249.7,207.2 257.6,202.4 249.7,197.7 
		251.3,196.1 	"/>
	<path id="XMLID_126_" class="st4" d="M141.8,228.4c0-5.5,1.6-7.9,5.5-7.9c3.2,0,5.5,3.2,5.5,7.9c0,5.5-1.6,7.9-5.5,7.9
		S141.8,233.9,141.8,228.4z M149.7,228.4c0-4.7-0.8-6.3-3.2-6.3c-1.6,0-3.2,1.6-3.2,6.3c0,4.7,0.8,6.3,3.2,6.3
		S149.7,233.2,149.7,228.4z M146.5,226.9c0.8,0,1.6,0.8,1.6,1.6c0,0.8-0.8,1.6-1.6,1.6c-0.8,0-1.6-0.8-1.6-1.6
		C144.9,227.6,145.7,226.9,146.5,226.9z"/>
	<path id="XMLID_127_" class="st4" d="M159.9,236.3c-1.6,0-3.9-0.8-4.7-2.4l1.6-0.8c0.8,0.8,2.4,1.6,3.2,1.6c2.4,0,3.2-0.8,3.2-3.2
		c0-2.4-1.6-3.2-3.2-3.2h-1.6v-1.6h0.8c1.6,0,3.2-0.8,3.2-2.4s-1.6-2.4-3.2-2.4c-1.6,0-2.4,0.8-3.2,1.6l-0.8-1.6
		c1.6-1.6,3.2-1.6,4.7-1.6c3.2,0,4.7,1.6,4.7,3.9c0,1.6-1.6,3.2-3.2,3.9l0,0c1.6,0,3.2,1.6,3.2,3.9
		C165.4,234.7,163.1,236.3,159.9,236.3z"/>
	<polygon id="XMLID_128_" class="st4" points="191.4,222.9 192.2,224.5 184.3,229.2 192.2,233.9 191.4,235.5 182.7,230 182.7,228.4 
			"/>
	<polygon id="XMLID_146_" class="st4" points="203.2,236.3 203.2,229.2 197.7,229.2 197.7,236.3 196.1,236.3 196.1,220.6 
		197.7,220.6 197.7,227.6 203.2,227.6 203.2,220.6 205.6,220.6 205.6,236.3 	"/>
	<polygon id="XMLID_147_" class="st4" points="211.9,222.9 211.9,227.6 218.2,227.6 218.2,229.2 211.9,229.2 211.9,234.7 219,234.7 
		219,236.3 210.3,236.3 210.3,220.6 219,220.6 219,222.9 	"/>
	<path id="XMLID_150_" class="st4" d="M230.8,232.4h-6.3l-1.6,3.9h-2.4l4.7-15.8h2.4l4.7,15.8H230L230.8,232.4z M225.3,230.8h4.7
		l-2.4-7.9l0,0L225.3,230.8z"/>
	<path id="XMLID_153_" class="st4" d="M240.2,236.3h-3.9v-15.8h3.2c3.9,0,7.1,1.6,7.1,7.9C247.3,234.7,243.4,236.3,240.2,236.3z
		 M240.2,222.9h-1.6v11.8h1.6c2.4,0,4.7-0.8,4.7-6.3S242.6,222.9,240.2,222.9z"/>
	<polygon id="XMLID_154_" class="st4" points="252.8,222.9 252.8,227.6 258.4,227.6 258.4,229.2 252.8,229.2 252.8,234.7 
		259.9,234.7 259.9,236.3 250.5,236.3 250.5,220.6 259.9,220.6 259.2,222.9 	"/>
	<path id="XMLID_157_" class="st4" d="M270.2,229.2l4.7,7.1h-3.2l-3.9-6.3h-2.4v6.3h-1.6v-15.8h3.9c3.9,0,5.5,1.6,5.5,4.7
		C274.1,227.6,272.5,229.2,270.2,229.2z M267.8,222.1h-2.4v5.5h2.4c2.4,0,3.2-0.8,3.2-3.2C271.8,222.9,270.2,222.1,267.8,222.1z"/>
	<polygon id="XMLID_158_" class="st4" points="286.7,228.4 286.7,230 278.1,235.5 277.3,233.9 285.1,229.2 277.3,224.5 278.1,222.9 
			"/>
	<path id="XMLID_162_" class="st4" d="M141.8,256c0-5.5,1.6-7.9,5.5-7.9c3.2,0,5.5,3.2,5.5,7.9c0,5.5-1.6,7.9-5.5,7.9
		S141.8,260.7,141.8,256z M149.7,256c0-4.7-0.8-6.3-3.2-6.3c-1.6,0-3.2,1.6-3.2,6.3s0.8,6.3,3.2,6.3S149.7,259.9,149.7,256z
		 M146.5,254.4c0.8,0,1.6,0.8,1.6,1.6c0,0.8-0.8,1.6-1.6,1.6c-0.8,0-1.6-0.8-1.6-1.6C144.9,254.4,145.7,254.4,146.5,254.4z"/>
	<polygon id="XMLID_163_" class="st4" points="163.1,259.9 163.1,263.1 161.5,263.1 161.5,259.9 155.2,259.9 155.2,258.4 
		159.9,247.3 161.5,248.1 157.5,258.4 161.5,258.4 161.5,253.6 163.1,253.6 163.1,258.4 165.4,258.4 165.4,259.9 	"/>
	<polygon id="XMLID_164_" class="st4" points="191.4,249.7 192.2,251.3 184.3,256 192.2,261.5 191.4,262.3 182.7,257.6 182.7,255.2 
			"/>
	<polygon id="XMLID_165_" class="st4" points="196.9,265.5 195.3,264.7 204.8,245 206.4,245.8 	"/>
	<polygon id="XMLID_166_" class="st4" points="217.4,263.1 217.4,256 211.1,256 211.1,263.1 209.5,263.1 209.5,248.1 211.1,248.1 
		211.1,254.4 217.4,254.4 217.4,248.1 219,248.1 219,263.1 	"/>
	<polygon id="XMLID_167_" class="st4" points="226.1,249.7 226.1,254.4 231.6,254.4 231.6,256 226.1,256 226.1,261.5 232.4,261.5 
		232.4,263.1 223.7,263.1 223.7,248.1 232.4,248.1 232.4,249.7 	"/>
	<path id="XMLID_170_" class="st4" d="M244.2,259.2h-6.3l-1.6,3.9h-2.4l4.7-15.8h2.4l4.7,15.8h-2.4L244.2,259.2z M238.7,257.6h4.7
		l-2.4-7.9l0,0L238.7,257.6z"/>
	<path id="XMLID_173_" class="st4" d="M253.6,263.1h-3.9v-15.8h3.2c3.9,0,7.1,1.6,7.1,7.9C260.7,262.3,256.8,263.1,253.6,263.1z
		 M253.6,249.7h-1.6v11.8h1.6c2.4,0,4.7-0.8,4.7-6.3C258.4,250.5,256,249.7,253.6,249.7z"/>
	<polygon id="XMLID_174_" class="st4" points="266.2,249.7 266.2,254.4 271.8,254.4 271.8,256 266.2,256 266.2,261.5 273.3,261.5 
		273.3,263.1 263.9,263.1 263.9,248.1 273.3,248.1 272.5,249.7 	"/>
	<path id="XMLID_177_" class="st4" d="M283.6,256.8l4.7,7.1h-2.4l-3.9-6.3h-2.4v6.3h-2.4v-15.8h3.9c3.9,0,5.5,1.6,5.5,4.7
		C287.5,254.4,285.9,256,283.6,256.8z M282,249.7h-2.4v5.5h2.4c2.4,0,3.2-0.8,3.2-3.2C285.1,250.5,283.6,249.7,282,249.7z"/>
	<polygon id="XMLID_178_" class="st4" points="300.1,255.2 300.1,257.6 291.4,262.3 290.7,261.5 298.5,256 290.7,251.3 291.4,249.7 
			"/>
</g>
</svg>
