<?xml version="1.0" encoding="utf-8"?>
<!-- Generator: Adobe Illustrator 24.1.1, SVG Export Plug-In . SVG Version: 6.00 Build 0)  -->
<svg version="1.1" id="Layer_1" xmlns="http://www.w3.org/2000/svg" xmlns:xlink="http://www.w3.org/1999/xlink" x="0px" y="0px"
	 viewBox="0 0 512 512" style="enable-background:new 0 0 512 512;" xml:space="preserve">
<style type="text/css">
	.st0{fill:#2F2707;}
	.st1{fill:#DE4C36;}
</style>
<g>
	<path class="st0" d="M306.8,221.9c-11.2,0-19.6,5.5-19.6,18.8c0,10,5.5,16.9,19,16.9c11.4,0,19.2-6.7,19.2-17.3
		C325.4,228.2,318.5,221.9,306.8,221.9z M284.4,315.5c-2.7,3.3-5.3,6.7-5.3,10.8c0,8.2,10.4,10.6,24.7,10.6c11.8,0,28-0.8,28-11.8
		c0-6.5-7.8-6.9-17.6-7.6L284.4,315.5z M344.8,222.5c3.7,4.7,7.5,11.2,7.5,20.6c0,22.6-17.8,35.9-43.5,35.9
		c-6.5,0-12.5-0.8-16.1-1.8L286,288l20,1.2c35.3,2.3,56.1,3.3,56.1,30.4c0,23.5-20.6,36.7-56.1,36.7c-36.9,0-51-9.4-51-25.5
		c0-9.2,4.1-14.1,11.2-20.8c-6.7-2.8-9-7.9-9-13.5c0-4.5,2.2-8.6,5.9-12.5c3.7-3.9,7.8-7.8,12.6-12.2c-10-4.9-17.6-15.5-17.6-30.6
		c0-23.5,15.5-39.6,46.7-39.6c8.8,0,14.1,0.8,18.8,2h39.8V221L344.8,222.5z"/>
	<path class="st0" d="M399.5,185.4c-11.6,0-18.4-6.7-18.4-18.4c0-11.6,6.7-18,18.4-18c11.8,0,18.6,6.3,18.6,18
		C418,178.7,411.3,185.4,399.5,185.4z M373.1,308v-16.1l10.4-1.4c2.9-0.4,3.3-1,3.3-4.1v-60c0-2.2-0.6-3.7-2.7-4.3l-11-3.9l2.2-16.5
		h42.2v84.7c0,3.3,0.2,3.7,3.3,4.1l10.4,1.4V308H373.1z"/>
	<path class="st0" d="M512,300.1c-8.8,4.3-21.6,8.2-33.3,8.2c-24.3,0-33.5-9.8-33.5-32.9V222c0-1.2,0-2-1.6-2h-14.3v-18.2
		c18-2,25.1-11,27.3-33.3h19.4v29c0,1.4,0,2,1.6,2h28.8v20.4h-30.4v48.8c0,12,2.9,16.7,13.9,16.7c5.7,0,11.6-1.4,16.5-3.3L512,300.1
		"/>
	<path class="st1" d="M209.7,246.6l-93.3-93.3c-5.4-5.4-14.1-5.4-19.5,0l-19.4,19.4l24.6,24.6c5.7-1.9,12.3-0.6,16.8,3.9
		c4.6,4.6,5.9,11.2,3.9,16.9l23.7,23.7c5.7-2,12.3-0.7,16.9,3.9c6.4,6.4,6.4,16.8,0,23.2c-6.4,6.4-16.8,6.4-23.2,0
		c-4.8-4.8-6-11.9-3.6-17.8l-22.1-22.1l0,58.1c1.6,0.8,3,1.8,4.3,3.1c6.4,6.4,6.4,16.8,0,23.2c-6.4,6.4-16.8,6.4-23.2,0
		c-6.4-6.4-6.4-16.8,0-23.2c1.6-1.6,3.4-2.8,5.4-3.6v-58.7c-2-0.8-3.8-2-5.4-3.6c-4.8-4.8-6-12-3.5-17.9L68,182.2l-64,64
		c-5.4,5.4-5.4,14.1,0,19.5l93.3,93.3c5.4,5.4,14.1,5.4,19.5,0l92.9-92.9C215,260.7,215,251.9,209.7,246.6"/>
</g>
</svg>
