<?xml version="1.0" encoding="utf-8"?>
<!-- Generator: Adobe Illustrator 19.0.0, SVG Export Plug-In . SVG Version: 6.00 Build 0)  -->
<svg version="1.1" id="Layer_1" xmlns="http://www.w3.org/2000/svg" xmlns:xlink="http://www.w3.org/1999/xlink" x="0px" y="0px"
	 viewBox="0 0 500 500" style="enable-background:new 0 0 500 500;" xml:space="preserve">
<style type="text/css">
	.st0{fill:#E8D100;}
	.st1{fill:#F7DF1E;}
	.st2{fill:#46483E;}
	.st3{fill:#FFFFFF;}
	.st4{clip-path:url(#XMLID_25_);fill:#EBEBEB;}
</style>
<g id="XMLID_2_">
	<polyline id="XMLID_4_" class="st0" points="118.5,395.4 89.2,67.5 410.8,67.5 381.5,395.4 249.6,432.5 	"/>
	<polygon id="XMLID_3_" class="st1" points="250.4,93.9 381.5,93.9 356.6,374.8 250.4,404 	"/>
	<path id="XMLID_6_" d="M260.1,365.4l10.3-6.2c2,3.5,3.8,6.5,8.1,6.5c4.2,0,6.8-1.6,6.8-8v-43.1H298v43.2c0,13.1-7.7,19.1-18.9,19.1
		C269,377,263.1,371.8,260.1,365.4"/>
	<path id="XMLID_7_" d="M304.9,364.1l10.3-6c2.7,4.4,6.2,7.7,12.5,7.7c5.2,0,8.6-2.6,8.6-6.2c0-4.3-3.4-5.9-9.2-8.4l-3.2-1.4
		c-9.1-3.9-15.2-8.8-15.2-19.1c0-9.5,7.2-16.7,18.5-16.7c8,0,13.8,2.8,18,10.1l-9.9,6.3c-2.2-3.9-4.5-5.4-8.1-5.4
		c-3.7,0-6.1,2.4-6.1,5.4c0,3.8,2.4,5.3,7.8,7.7l3.2,1.4c10.8,4.6,16.8,9.3,16.8,19.9c0,11.4-9,17.6-21,17.6
		C316.2,377,308.6,371.4,304.9,364.1"/>
	<path id="XMLID_8_" class="st2" d="M250.4,306.3l5.3,9.3l80.3-46.3c3.3-1.9,5.3-5.4,5.3-9.3v-92.7c0-3.8-2-7.4-5.3-9.3l-80.3-46.3
		c-3.3-1.9-7.4-1.9-10.7,0L164.8,158c-3.3,1.9-5.3,5.4-5.3,9.3V260c0,3.8,2,7.4,5.3,9.3l80.3,46.3c3.3,1.9,7.4,1.9,10.7,0
		L250.4,306.3l5.3-9.3l-74.9-43.3v-80.3l69.6-40.2l69.6,40.2v80.3L245,297.1L250.4,306.3l5.3-9.3L250.4,306.3z"/>
	<path id="XMLID_9_" class="st3" d="M250.4,306.3l5.3,9.3l80.3-46.3c3.3-1.9,5.3-5.4,5.3-9.3v-92.7c0-3.8-2-7.4-5.3-9.3l-80.3-46.3
		c-3.3-1.9-7.4-1.9-10.7,0L164.8,158c-3.3,1.9-5.3,5.4-5.3,9.3V260c0,3.8,2,7.4,5.3,9.3l80.3,46.3c3.3,1.9,7.4,1.9,10.7,0
		L250.4,306.3l5.3-9.3l-74.9-43.3v-80.3l69.6-40.2l69.6,40.2v80.3L245,297.1L250.4,306.3l5.3-9.3L250.4,306.3z"/>
	<g id="XMLID_12_">
		<defs>
			<rect id="XMLID_11_" x="139.1" y="102.4" width="111.2" height="222.4"/>
		</defs>
		<clipPath id="XMLID_25_">
			<use xlink:href="#XMLID_11_"  style="overflow:visible;"/>
		</clipPath>
		<path id="XMLID_14_" class="st4" d="M250.4,306.3l5.3,9.3l80.3-46.3c3.3-1.9,5.3-5.4,5.3-9.3v-92.7c0-3.8-2-7.4-5.3-9.3
			l-80.3-46.3c-3.3-1.9-7.4-1.9-10.7,0L164.8,158c-3.3,1.9-5.3,5.4-5.3,9.3V260c0,3.8,2,7.4,5.3,9.3l80.3,46.3
			c3.3,1.9,7.4,1.9,10.7,0L250.4,306.3l5.3-9.3l-74.9-43.3v-80.3l69.6-40.2l69.6,40.2v80.3L245,297.1L250.4,306.3l5.3-9.3
			L250.4,306.3z"/>
	</g>
</g>
</svg>
